# xmcd
#
# Track frame offsets:
#	150
#	14784
#	34748
#	63372
#	79759
#	105926
#	128164
#	146984
#	172068
#	187741
#
# Disc length: 2816 seconds
#
# Revision: 0
# Processed by: cddbd v1.4PL0 Copyright (c) Steve Scherf et al.
# Submitted via: audiograbber 1.82.00
#
DISCID=850afe0a
DTITLE=Bo Ramsey - In The Weeds
DYEAR=1997
DGENRE=Folk
TTITLE0=In The Weeds  
TTITLE1=Desert Flower  
TTITLE2=Precious
TTITLE3=Forget You  
TTITLE4=Big Bill  
TTITLE5=Sidelounge
TTITLE6=King Of Clubs  
TTITLE7=Aint' It Hard  
TTITLE8=Everything Is Comin' Down  
TTITLE9=Living In A Cornfield  
EXTD=
EXTT0=
EXTT1=
EXTT2=
EXTT3=
EXTT4=
EXTT5=
EXTT6=
EXTT7=
EXTT8=
EXTT9=
PLAYORDER=
